<svg width="24" height="24" viewBox="0 0 24 24" fill="none" xmlns="http://www.w3.org/2000/svg">
<g id="Essentials / Trash">
<path id="Vector" d="M18.0933 22.6667H5.90664C5.6501 22.6606 5.39727 22.6041 5.1626 22.5003C4.92792 22.3965 4.71599 22.2475 4.53893 22.0617C4.36186 21.876 4.22313 21.6572 4.13065 21.4178C4.03818 21.1785 3.99377 20.9232 3.99998 20.6667V7.48669H5.33331V20.6667C5.32694 20.7482 5.33675 20.8301 5.36215 20.9077C5.38756 20.9854 5.42807 21.0573 5.48135 21.1192C5.53463 21.1812 5.59964 21.232 5.67262 21.2688C5.74561 21.3055 5.82514 21.3275 5.90664 21.3334H18.0933C18.1748 21.3275 18.2543 21.3055 18.3273 21.2688C18.4003 21.232 18.4653 21.1812 18.5186 21.1192C18.5719 21.0573 18.6124 20.9854 18.6378 20.9077C18.6632 20.8301 18.673 20.7482 18.6666 20.6667V7.48669H20V20.6667C20.0062 20.9232 19.9618 21.1785 19.8693 21.4178C19.7768 21.6572 19.6381 21.876 19.461 22.0617C19.284 22.2475 19.072 22.3965 18.8374 22.5003C18.6027 22.6041 18.3498 22.6606 18.0933 22.6667Z" fill="#FF3131"/>
<path id="Vector_2" d="M20.52 5.99996H3.33334C3.15653 5.99996 2.98696 5.92972 2.86193 5.8047C2.73691 5.67967 2.66667 5.5101 2.66667 5.33329C2.66667 5.15648 2.73691 4.98691 2.86193 4.86189C2.98696 4.73686 3.15653 4.66663 3.33334 4.66663H20.52C20.6968 4.66663 20.8664 4.73686 20.9914 4.86189C21.1164 4.98691 21.1867 5.15648 21.1867 5.33329C21.1867 5.5101 21.1164 5.67967 20.9914 5.8047C20.8664 5.92972 20.6968 5.99996 20.52 5.99996Z" fill="#FF3131"/>
<path id="Vector_3" d="M14 8.66663H15.3333V18.6666H14V8.66663Z" fill="#FF3131"/>
<path id="Vector_4" d="M8.66667 8.66663H10V18.6666H8.66667V8.66663Z" fill="#FF3131"/>
<path id="Vector_5" d="M15.3333 3.90671H14.0667V2.66671H9.93334V3.90671H8.66667V2.66671C8.66624 2.32434 8.79753 1.99492 9.03334 1.74671C9.26915 1.49849 9.5914 1.35049 9.93334 1.33337H14.0667C14.4086 1.35049 14.7309 1.49849 14.9667 1.74671C15.2025 1.99492 15.3338 2.32434 15.3333 2.66671V3.90671Z" fill="#FF3131"/>
</g>
</svg>
